<svg id="visual" viewBox="0 0 1500 900" width="1500" height="900" xmlns="http://www.w3.org/2000/svg" xmlns:xlink="http://www.w3.org/1999/xlink" version="1.1"><rect x="0" y="0" width="1500" height="900" fill="#eee"></rect><defs><linearGradient id="grad1_0" x1="40%" y1="0%" x2="100%" y2="100%"><stop offset="16.666666666666664%" stop-color="#275519" stop-opacity="1"></stop><stop offset="83.33333333333334%" stop-color="#275519" stop-opacity="1"></stop></linearGradient></defs><defs><linearGradient id="grad2_0" x1="0%" y1="0%" x2="60%" y2="100%"><stop offset="16.666666666666664%" stop-color="#275519" stop-opacity="1"></stop><stop offset="83.33333333333334%" stop-color="#275519" stop-opacity="1"></stop></linearGradient></defs><g transform="translate(1500, 0)"><path d="M0 568.5C-61.3 517.1 -122.6 465.6 -178.3 430.5C-234 395.4 -284.1 376.7 -347.2 347.2C-410.2 317.6 -486.2 277.2 -525.2 217.6C-564.3 157.9 -566.4 78.9 -568.5 0L0 0Z" fill="#FBAE3C"></path></g><g transform="translate(0, 900)"><path d="M0 -568.5C63.4 -525.8 126.8 -483.1 187.1 -451.8C247.5 -420.4 304.7 -400.4 365.6 -365.6C426.4 -330.7 490.8 -281 525.2 -217.6C559.7 -154.2 564.1 -77.1 568.5 0L0 0Z" fill="#FBAE3C"></path></g></svg>